<svg xmlns="http://www.w3.org/2000/svg" viewBox="0 0 96 96" role="img" aria-labelledby="title">
  <title id="title">Birthday cake</title>
  <g fill="#b65321">
    <path d="M25 39h46c4 0 7 3 7 7v8c-5 0-6 5-11 5s-6-5-11-5-6 5-11 5-6-5-11-5-6 5-11 5c-2 0-4-1-5-2V46c0-4 3-7 7-7Z"/>
    <path d="M18 61c2 1 4 2 7 2 5 0 6-4 11-4s6 4 11 4 6-4 11-4 6 4 11 4c4 0 7-2 9-4v18c0 4-3 7-7 7H25c-4 0-7-3-7-7V61Z"/>
    <rect x="27" y="25" width="6" height="11" rx="2"/>
    <rect x="45" y="25" width="6" height="11" rx="2"/>
    <rect x="63" y="25" width="6" height="11" rx="2"/>
    <path d="M30 22c-4-4 0-8 0-11 4 3 7 7 3 11-1 1-2 1-3 0Zm18 0c-4-4 0-8 0-11 4 3 7 7 3 11-1 1-2 1-3 0Zm18 0c-4-4 0-8 0-11 4 3 7 7 3 11-1 1-2 1-3 0Z"/>
  </g>
</svg>
