<svg xmlns="http://www.w3.org/2000/svg" viewBox="0 0 29 29" shape-rendering="crispEdges">
  <rect width="29" height="29" fill="#fff"/>
  <path fill="#344b5a" d="M2 2h7v7H2zm2 2v3h3V4zm16-2h7v7h-7zm2 2v3h3V4zM2 20h7v7H2zm2 2v3h3v-3zM11 2h2v2h-2zm4 0h3v2h-3zm-4 4h2v3h-2zm4-1h2v2h-2zm3 3h2v3h-2zM10 11h3v2h-3zm5-2h2v4h-2zm7 2h5v2h-5zM2 11h2v3H2zm4 0h2v2H6zm-4 5h3v2H2zm5-2h4v2H7zm5 1h2v4h-2zm3-1h3v2h-3zm5 1h2v3h-2zm3-1h3v2h-3zM6 17h5v2H6zm9 1h2v3h-2zm4 0h4v2h-4zm5 2h3v2h-3zM11 21h3v2h-3zm5 1h2v5h-2zm3-1h3v3h-3zm4 3h4v3h-4zm-12 3h3v-2h-3z"/>
</svg>
