<?xml version="1.0" standalone="no"?>
<!DOCTYPE svg PUBLIC "-//W3C//DTD SVG 20010904//EN"
 "http://www.w3.org/TR/2001/REC-SVG-20010904/DTD/svg10.dtd">
<svg version="1.0" xmlns="http://www.w3.org/2000/svg"
 width="3601.000000pt" height="2532.000000pt" viewBox="0 0 3601.000000 2532.000000"
 preserveAspectRatio="xMidYMid meet">
<metadata>
Created by potrace 1.16, written by Peter Selinger 2001-2019
</metadata>
<g transform="translate(0.000000,2532.000000) scale(0.100000,-0.100000)"
fill="#000000" stroke="none">
<path d="M0 12660 l0 -12660 18005 0 18005 0 0 12660 0 12660 -18005 0 -18005
0 0 -12660z m36000 0 l0 -12650 -17995 0 -17995 0 0 12650 0 12650 17995 0
17995 0 0 -12650z"/>
<path d="M19926 23460 c-263 -71 -483 -133 -488 -138 -5 -5 -8 -22 -6 -38 l3
-29 450 -82 c248 -44 469 -84 493 -88 l42 -6 0 255 c0 141 -3 256 -7 255 -5 0
-223 -58 -487 -129z"/>
<path d="M20423 22512 c-28 -23 -1581 -3130 -1589 -3180 -8 -52 14 -94 63
-118 37 -18 88 -19 1523 -19 1456 0 1486 0 1517 20 44 26 65 73 57 125 -4 22
-36 100 -71 173 -36 72 -145 299 -243 502 -428 888 -1221 2510 -1227 2512 -5
2 -18 -5 -30 -15z"/>
<path d="M16890 19890 c-1210 -52 -2233 -200 -3375 -490 -3505 -890 -6458
-2780 -8874 -5679 -347 -418 -1004 -1446 -1488 -2331 -1478 -2701 -2243 -5552
-2275 -8475 l-3 -270 162 -3 c162 -2 163 -2 167 20 3 13 24 219 46 458 152
1622 326 2736 607 3870 891 3610 2765 6574 5658 8951 627 516 1416 1080 2125
1521 363 225 959 533 1500 773 1701 756 3489 1198 5380 1330 437 30 678 38
1241 39 l576 2 49 25 c34 17 58 39 78 72 29 48 60 153 47 162 -41 25 -1198 43
-1621 25z"/>
<path d="M22457 19195 c-10 -76 -16 -139 -15 -139 2 -1 107 -26 233 -55 1325
-306 2676 -803 3795 -1396 1094 -580 2043 -1249 3000 -2113 222 -202 757 -732
970 -962 1419 -1536 2506 -3201 3238 -4960 715 -1719 1099 -3493 1193 -5505
12 -268 16 -1245 4 -1372 -7 -77 -6 -82 15 -93 27 -15 165 -25 212 -16 l34 6
12 318 c15 386 16 1152 2 1472 -72 1651 -363 3156 -905 4675 -997 2800 -2634
5123 -4950 7026 -1893 1555 -3782 2523 -5985 3067 -234 58 -710 164 -795 178
l-41 6 -17 -137z"/>
<path d="M19151 18688 c2 -327 -7 -390 -73 -527 -32 -68 -56 -100 -125 -169
l-85 -84 4 -81 c4 -74 10 -92 56 -184 100 -197 168 -442 192 -691 7 -66 10
-240 8 -415 l-3 -302 1257 -3 1257 -2 17 31 c18 35 21 136 9 310 -7 117 7 349
30 484 38 221 109 429 211 621 30 56 54 115 54 130 0 15 -7 54 -17 87 -13 48
-29 73 -94 143 -78 86 -136 181 -161 264 -10 33 -13 125 -13 355 l0 310 -1263
3 -1262 2 1 -282z"/>
<path d="M15855 17635 c-269 -72 -498 -134 -507 -138 -27 -10 -23 -55 5 -62
63 -15 991 -184 994 -181 2 1 2 118 1 258 l-3 254 -490 -131z"/>
<path d="M16275 16028 c-53 -18 -90 -64 -125 -154 -45 -117 -143 -315 -290
-589 -247 -459 -339 -677 -348 -826 -3 -51 3 -122 18 -213 12 -76 19 -140 16
-143 -9 -10 -137 -32 -182 -33 -22 0 -43 -2 -46 -5 -8 -9 50 -278 74 -343 24
-67 84 -130 143 -152 35 -13 452 -15 3318 -18 l3277 -2 -2 942 -3 943 -227 3
-228 2 0 280 0 280 -1275 0 -1275 0 0 -279 0 -279 -152 -4 c-246 -7 -276 -30
-362 -276 -20 -57 -39 -110 -44 -118 -5 -9 -63 74 -186 271 -98 157 -182 285
-186 285 -11 0 -392 -835 -500 -1096 -33 -82 -72 -176 -86 -210 -61 -145 -150
-214 -278 -214 -82 0 -146 15 -146 34 0 8 9 76 21 153 13 87 19 161 15 200 -8
97 -145 446 -441 1123 -159 363 -183 400 -280 433 -54 19 -173 21 -220 5z"/>
<path d="M23220 15350 c-261 -71 -485 -132 -497 -135 -17 -4 -23 -13 -23 -35
0 -16 4 -31 9 -34 15 -10 995 -185 1003 -180 4 3 8 120 8 260 0 197 -3 254
-12 253 -7 0 -227 -58 -488 -129z"/>
<path d="M10820 15091 c-261 -70 -487 -131 -501 -134 -22 -6 -25 -11 -21 -33
2 -14 10 -28 16 -30 25 -10 1002 -191 1009 -187 4 2 7 119 7 259 0 236 -1 254
-17 253 -10 0 -232 -58 -493 -128z"/>
<path d="M23568 13993 c-86 -236 -154 -431 -151 -435 2 -5 153 -8 335 -8 310
0 330 1 324 18 -31 80 -341 839 -346 845 -3 4 -76 -185 -162 -420z"/>
<path d="M11258 14030 c-164 -313 -228 -438 -228 -448 0 -9 75 -12 286 -12
282 0 285 0 279 20 -4 11 -66 143 -139 292 l-132 272 -66 -124z"/>
<path d="M25880 13675 c-272 -74 -496 -135 -497 -135 -2 0 -3 -13 -3 -29 0
-28 4 -30 53 -40 98 -20 952 -181 959 -181 5 0 8 117 8 260 0 202 -3 260 -12
259 -7 0 -236 -61 -508 -134z"/>
<path d="M23505 13336 c-22 -7 -54 -20 -70 -28 -39 -21 -114 -101 -148 -159
-36 -62 -108 -234 -173 -418 -30 -84 -65 -174 -78 -200 -85 -167 -69 -289 54
-424 88 -96 110 -201 110 -519 l0 -188 603 0 603 0 0 248 c1 318 6 343 84 421
139 138 150 270 40 480 -27 53 -82 161 -121 241 -39 80 -100 204 -135 277 -72
147 -125 211 -196 237 -102 37 -488 59 -573 32z"/>
<path d="M11090 13304 c-212 -25 -217 -29 -365 -284 -43 -74 -225 -378 -403
-675 -358 -596 -562 -941 -562 -949 0 -3 648 -6 1440 -6 1298 0 1440 2 1440
16 0 27 -131 288 -297 594 -194 357 -323 613 -404 803 -92 216 -126 274 -204
353 -113 115 -210 153 -400 159 -68 2 -174 -3 -245 -11z"/>
<path d="M15630 13270 c0 -21 11 -142 25 -267 62 -583 61 -719 -15 -1303 -20
-162 -36 -298 -33 -302 2 -5 1599 -8 3549 -8 3202 0 3544 2 3544 16 0 13 -419
1320 -566 1767 l-46 137 -3229 0 -3229 0 0 -40z"/>
<path d="M14138 12220 l-276 -830 565 0 565 0 -7 28 c-3 15 -120 387 -258 827
l-253 800 -29 3 -30 3 -277 -831z"/>
<path d="M26372 12578 c-5 -7 -112 -272 -237 -588 -125 -316 -229 -578 -232
-582 -2 -5 205 -8 460 -8 l465 0 -52 163 c-29 89 -117 357 -196 595 -142 428
-143 432 -170 432 -15 0 -32 -6 -38 -12z"/>
<path d="M6895 11255 c-231 -63 -448 -121 -483 -131 -61 -16 -63 -17 -60 -47
l3 -31 470 -87 c259 -49 485 -91 503 -94 l32 -6 0 256 0 255 -22 -1 c-13 0
-212 -52 -443 -114z"/>
<path d="M13866 11158 c-70 -19 -116 -78 -160 -203 -86 -244 -212 -524 -262
-584 -54 -65 -58 -66 -393 -69 -167 -2 -301 0 -298 5 8 13 339 806 344 826 5
16 -79 17 -1661 17 l-1666 0 2 -707 3 -708 7588 -3 c4173 -1 7587 0 7587 3 0
9 -221 539 -387 929 -179 419 -186 431 -282 478 -46 23 -49 23 -471 23 l-425
-1 -140 -38 c-240 -66 -211 -64 -306 -23 -46 19 -102 41 -124 47 -56 16 -8892
25 -8949 8z"/>
<path d="M25947 11160 c-73 -9 -151 -47 -160 -77 -3 -10 -44 -128 -92 -263
-98 -279 -365 -1068 -365 -1081 0 -5 446 -9 1020 -9 603 0 1020 4 1020 9 0 12
-286 856 -384 1130 -42 120 -85 224 -97 237 -49 53 -83 57 -494 60 -209 1
-410 -1 -448 -6z"/>
<path d="M28389 10054 c-63 -163 -115 -300 -117 -305 -2 -5 103 -9 236 -9
l239 0 -115 305 c-64 168 -119 305 -122 305 -4 0 -58 -133 -121 -296z"/>
<path d="M7292 10030 c-61 -116 -112 -215 -112 -220 0 -6 75 -10 195 -10 162
0 195 2 195 14 0 8 -31 99 -69 203 -86 234 -82 223 -90 223 -3 0 -57 -95 -119
-210z"/>
<path d="M9864 9493 c-49 -17 -121 -71 -144 -107 -22 -36 -75 -284 -210 -980
l-97 -501 9975 -3 c5487 -1 9977 -1 9979 1 3 4 -442 1272 -486 1381 -61 152
-111 199 -227 215 -99 14 -315 -1 -381 -27 -107 -41 -218 -139 -382 -334 -40
-49 -75 -88 -77 -88 -2 0 -16 24 -30 53 -62 122 -156 230 -254 292 -62 39
-181 81 -270 95 -111 17 -17346 20 -17396 3z"/>
<path d="M7167 9467 c-74 -18 -118 -74 -243 -312 -64 -121 -219 -407 -345
-636 -186 -337 -279 -527 -279 -566 0 -2 466 -3 1035 -3 569 0 1035 2 1035 4
0 2 -96 217 -214 478 -117 260 -259 577 -316 705 -99 224 -142 297 -192 324
-25 13 -430 19 -481 6z"/>
<path d="M6122 7584 c-67 -18 -101 -35 -133 -71 -68 -72 -999 -1352 -999
-1372 0 -5 37 -12 83 -15 45 -3 1646 -8 3557 -10 1911 -2 4060 -9 4775 -15
1395 -11 2383 -4 2425 19 13 7 68 46 123 87 477 355 1011 604 1495 697 222 43
308 50 547 50 237 0 352 -11 564 -55 421 -85 880 -293 1303 -591 129 -90 198
-127 291 -157 48 -14 482 -16 5217 -19 4747 -2 5356 0 5377 22 3 2 -148 175
-334 383 -186 208 -447 502 -579 654 -257 293 -303 334 -415 372 l-64 22
-6750 6 c-12296 11 -16423 10 -16483 -7z"/>
<path d="M10245 5773 c-2513 -8 -4571 -16 -4572 -17 -2 -1 8 -68 21 -147 66
-394 61 -706 -20 -1097 l-7 -32 4733 2 4733 3 23 114 c54 267 218 664 445
1072 33 58 59 109 59 112 0 4 -190 6 -422 5 -233 0 -2479 -7 -4993 -15z"/>
<path d="M20370 5782 c0 -6 27 -53 60 -104 176 -270 337 -686 400 -1032 12
-61 23 -121 26 -133 l4 -23 4435 0 c3541 0 4435 3 4435 13 0 6 -9 77 -20 157
-54 408 -49 768 15 1076 l7 31 -4154 6 c-2284 4 -4390 10 -4680 14 -381 4
-528 3 -528 -5z"/>
<path d="M5676 3907 c-3 -23 -8 -78 -11 -122 -22 -285 -127 -635 -297 -987
-39 -82 -68 -151 -65 -154 9 -9 9717 -11 9737 -3 14 6 14 22 -4 145 -28 203
-28 770 1 994 11 85 19 156 19 156 -1 1 -2110 4 -4688 8 l-4687 6 -5 -43z"/>
<path d="M21005 3877 c83 -390 83 -704 -2 -1271 l-6 -38 1579 6 c868 3 2956 9
4639 12 1683 3 3061 7 3062 8 1 1 -41 157 -93 346 -52 190 -122 451 -155 580
-33 129 -67 251 -76 272 -18 43 -67 93 -104 107 -18 6 -1528 10 -4439 10
l-4412 1 7 -33z"/>
</g>
</svg>
